<?xml version="1.0" standalone="no"?>
<!DOCTYPE svg PUBLIC "-//W3C//DTD SVG 20010904//EN"
 "http://www.w3.org/TR/2001/REC-SVG-20010904/DTD/svg10.dtd">
<svg version="1.0" xmlns="http://www.w3.org/2000/svg"
 width="500.000000pt" height="500.000000pt" viewBox="0 0 500.000000 500.000000"
 preserveAspectRatio="xMidYMid meet">
<metadata>
Created by potrace 1.11, written by Peter Selinger 2001-2013
</metadata>
<g transform="translate(0.000000,500.000000) scale(0.100000,-0.100000)"
fill="#000000" stroke="none">
<path d="M0 2500 l0 -2500 2500 0 2500 0 0 2500 0 2500 -2500 0 -2500 0 0
-2500z m3932 1998 c31 -17 50 -37 68 -73 24 -48 25 -60 28 -255 6 -328 -20
-706 -73 -1077 -181 -1256 -686 -2161 -1371 -2458 -254 -109 -568 -133 -819
-60 -510 148 -775 660 -778 1505 -1 124 5 277 12 340 24 214 140 880 181 1038
48 182 169 558 211 651 43 94 99 165 154 191 42 20 57 22 178 18 116 -3 138
-6 181 -28 77 -39 91 -65 90 -168 -1 -91 -19 -158 -203 -745 -177 -561 -285
-1197 -267 -1565 18 -365 107 -585 289 -713 104 -73 181 -94 337 -94 113 1
131 3 188 27 423 180 775 942 972 2106 39 234 76 523 95 757 30 367 34 405 54
449 25 58 83 120 134 145 95 46 264 51 339 9z"/>
</g>
</svg>
